<?xml version="1.0" encoding="UTF-8" standalone="no"?>
<!DOCTYPE svg PUBLIC "-//W3C//DTD SVG 1.1//EN" "http://www.w3.org/Graphics/SVG/1.1/DTD/svg11.dtd">
<svg width="100%" height="100%" viewBox="0 0 2150 424" version="1.1" xmlns="http://www.w3.org/2000/svg" xmlns:xlink="http://www.w3.org/1999/xlink" xml:space="preserve" xmlns:serif="http://www.serif.com/" style="fill-rule:evenodd;clip-rule:evenodd;stroke-linejoin:round;stroke-miterlimit:2;">
    <g transform="matrix(4.16667,0,0,4.16667,-1017.68,-1286.04)">
        <g id="Calque-1" serif:id="Calque 1">
            <g transform="matrix(-48.3593,28.2548,28.2548,48.3593,306.649,322.685)">
                <path d="M0.171,-0.39L1.065,-0.386L1.42,0.222L1.159,0.219L0.936,-0.163L0.302,-0.166L-0.008,0.39L-0.264,0.39L0.171,-0.39Z" style="fill:url(#_Linear1);fill-rule:nonzero;"/>
            </g>
            <g transform="matrix(24.3895,13.8577,13.8577,-24.3895,286.337,377.6)">
                <path d="M-0.1,-0.956L0.605,-0.993L1.488,0.552L1.238,0.993L0.974,0.553L0.349,-0.542L-0.341,-0.532L-0.1,-0.956Z" style="fill:rgb(63,120,224);fill-rule:nonzero;"/>
            </g>
            <g transform="matrix(-20.2266,11.7693,11.7693,20.2266,322.398,346.034)">
                <path d="M-0.557,-0.267L1.578,-0.267L1.89,0.27L-0.246,0.267L-0.557,-0.267Z" style="fill:url(#_Linear2);fill-rule:nonzero;"/>
            </g>
            <g transform="matrix(-4.26326e-14,46.7637,46.7637,4.26326e-14,306.171,311.509)">
                <path d="M-0.061,-0.403L0.25,-0.403L0.637,0.255L0.483,0.519L-0.061,-0.403Z" style="fill:url(#_Linear3);fill-rule:nonzero;"/>
            </g>
            <g transform="matrix(1,0,0,1,287.341,370.536)">
                <path d="M0,39.671L43.093,14.217L43.093,0L30.56,7.066L-0.003,25.117L0,39.671Z" style="fill:rgb(63,120,224);fill-rule:nonzero;"/>
            </g>
            <g transform="matrix(-35.8629,20.9535,20.9535,35.8629,286.521,328.971)">
                <path d="M-0.264,-0.412L-0.087,-0.11L0.767,-0.106L1.069,0.409L1.42,0.413L0.941,-0.407L-0.264,-0.412Z" style="fill:url(#_Linear4);fill-rule:nonzero;"/>
            </g>
            <g transform="matrix(1,0,0,1,394.665,342.301)">
                <path d="M0,33.725L0,40.782L-35.964,40.782L-35.964,-7.057L-1.425,-7.057L-1.425,0L-27.821,0L-27.821,14.182L-5.632,14.182L-5.632,20.968L-27.821,20.968L-27.821,33.725L0,33.725Z" style="fill:rgb(135,135,135);fill-rule:nonzero;"/>
            </g>
            <g transform="matrix(1,0,0,1,437.006,383.082)">
                <path d="M0,-36.778L-17.711,0L-21.646,0L-39.425,-36.778L-30.875,-36.778L-19.679,-13.231L-8.551,-36.778L0,-36.778Z" style="fill:rgb(135,135,135);fill-rule:nonzero;"/>
            </g>
            <g transform="matrix(1,0,0,1,446.232,367.884)">
                <path d="M0,-6.583L20.628,-6.583C20.153,-11.672 17.235,-15.879 10.586,-15.879C5.021,-15.879 0.95,-11.808 0,-6.583M-0.136,-0.883C1.018,4.953 6.242,8.82 11.739,8.82C15.811,8.82 19.61,6.988 21.85,3.936L27.074,8.21C23.682,12.757 17.711,15.674 10.586,15.674C-0.543,15.674 -8.211,7.192 -8.211,-3.258C-8.211,-13.775 -0.543,-22.257 10.586,-22.257C21.578,-22.257 28.432,-14.25 28.432,-3.054C28.432,-2.104 28.363,-0.883 28.363,-0.883L-0.136,-0.883Z" style="fill:rgb(135,135,135);fill-rule:nonzero;"/>
            </g>
            <g transform="matrix(1,0,0,1,489.387,376.434)">
                <path d="M0,-24.158C2.375,-28.094 6.447,-30.807 11.808,-30.807C12.758,-30.807 13.843,-30.604 14.929,-30.13L14.59,-21.783C12.894,-22.326 11.332,-22.393 9.907,-22.393C3.055,-22.393 0.137,-17.169 0,-11.401L0,6.649L-8.074,6.649L-8.074,-30.13L0,-30.13L0,-24.158Z" style="fill:rgb(135,135,135);fill-rule:nonzero;"/>
            </g>
            <g transform="matrix(1,0,0,1,588.52,349.156)">
                <path d="M0,20.016L6.446,25.309C1.832,30.873 -5.292,34.402 -13.231,34.402C-27.142,34.402 -38.474,23.477 -38.474,10.041C-38.474,-3.394 -27.142,-14.386 -13.231,-14.386C-5.292,-14.386 1.832,-10.79 6.446,-5.226L0,0.067C-2.985,-4.005 -7.803,-6.718 -13.231,-6.718C-22.324,-6.718 -29.856,0.204 -29.856,10.041C-29.856,19.745 -22.324,26.735 -13.231,26.735C-7.803,26.735 -2.985,24.088 0,20.016" style="fill:rgb(63,120,224);fill-rule:nonzero;"/>
            </g>
            <g transform="matrix(1,0,0,1,636.018,352.548)">
                <path d="M0,9.907L0,30.535L-8.143,30.535L-8.143,9.907C-8.143,3.46 -11.535,0.204 -17.167,0.204C-21.035,0.204 -24.088,1.425 -26.463,3.46L-26.463,30.535L-34.606,30.535L-34.606,-20.628L-26.463,-20.628L-26.463,-3.8C-23.613,-5.835 -19.881,-6.921 -15.81,-6.921C-5.36,-6.921 0,-1.765 0,9.907" style="fill:rgb(63,120,224);fill-rule:nonzero;"/>
            </g>
            <g transform="matrix(1,0,0,1,650.266,367.884)">
                <path d="M0,-6.583L20.628,-6.583C20.153,-11.672 17.235,-15.879 10.586,-15.879C5.021,-15.879 0.95,-11.808 0,-6.583M-0.136,-0.883C1.018,4.953 6.243,8.82 11.739,8.82C15.811,8.82 19.61,6.988 21.85,3.936L27.074,8.21C23.682,12.757 17.71,15.674 10.586,15.674C-0.543,15.674 -8.211,7.192 -8.211,-3.258C-8.211,-13.775 -0.543,-22.257 10.586,-22.257C21.578,-22.257 28.432,-14.25 28.432,-3.054C28.432,-2.104 28.363,-0.883 28.363,-0.883L-0.136,-0.883Z" style="fill:rgb(63,120,224);fill-rule:nonzero;"/>
            </g>
            <g transform="matrix(1,0,0,1,717.51,352.75)">
                <path d="M0,23.683C-3.325,28.093 -8.415,30.807 -14.047,30.807C-25.107,30.807 -34.132,22.326 -34.132,11.875C-34.132,1.358 -25.107,-7.124 -14.047,-7.124C-8.211,-7.124 -3.189,-4.41 0.135,-0.067L-5.157,4.683C-7.125,1.833 -10.383,0.001 -14.047,0.001C-20.765,0.001 -26.192,5.294 -26.192,11.875C-26.192,18.39 -20.765,23.683 -14.047,23.683C-10.45,23.683 -7.193,21.85 -5.157,18.933L0,23.683Z" style="fill:rgb(63,120,224);fill-rule:nonzero;"/>
            </g>
            <g transform="matrix(1,0,0,1,759.781,331.92)">
                <path d="M0,51.163L-9.024,51.163L-19.271,34.81L-27.82,43.156L-27.82,51.163L-35.964,51.163L-35.964,0L-27.82,0L-27.82,32.435L-9.771,14.385L-0.203,14.385L-13.843,28.635L0,51.163Z" style="fill:rgb(63,120,224);fill-rule:nonzero;"/>
            </g>
            <g transform="matrix(1,0,0,1,560.685,396.501)">
                <path d="M0,5.312L1.71,6.716C0.485,8.193 -1.405,9.129 -3.512,9.129C-7.202,9.129 -10.209,6.23 -10.209,2.665C-10.209,-0.9 -7.202,-3.817 -3.512,-3.817C-1.405,-3.817 0.485,-2.863 1.71,-1.386L0,0.018C-0.793,-1.062 -2.071,-1.783 -3.512,-1.783C-5.924,-1.783 -7.923,0.054 -7.923,2.665C-7.923,5.24 -5.924,7.094 -3.512,7.094C-2.071,7.094 -0.793,6.392 0,5.312" style="fill:rgb(135,135,135);fill-rule:nonzero;"/>
            </g>
            <g transform="matrix(1,0,0,1,574.904,394.683)">
                <path d="M0,8.949L0,10.821L-9.543,10.821L-9.543,-1.872L-0.379,-1.872L-0.379,0.001L-7.383,0.001L-7.383,3.763L-1.495,3.763L-1.495,5.564L-7.383,5.564L-7.383,8.949L0,8.949Z" style="fill:rgb(135,135,135);fill-rule:nonzero;"/>
            </g>
            <g transform="matrix(1,0,0,1,580.211,398.104)">
                <path d="M0,2.107L2.539,2.107C4.682,2.107 5.798,1.045 5.798,-0.684C5.798,-2.106 5.06,-3.42 2.917,-3.42L0,-3.42L0,2.107ZM3.241,3.872C3.043,3.889 2.827,3.889 2.629,3.889L0,3.889L0,7.4L-2.214,7.4L-2.214,-5.293L3.26,-5.293C6.879,-5.293 8.121,-3.151 8.121,-0.829C8.121,1.369 7.167,2.791 5.438,3.439L8.499,7.4L5.834,7.4L3.241,3.872Z" style="fill:rgb(135,135,135);fill-rule:nonzero;"/>
            </g>
            <g transform="matrix(1,0,0,1,601.274,403.63)">
                <path d="M0,-8.947L-4.159,-8.947L-4.159,1.873L-6.374,1.873L-6.374,-8.947L-10.533,-8.947L-10.533,-10.82L0,-10.82L0,-8.947Z" style="fill:rgb(135,135,135);fill-rule:nonzero;"/>
            </g>
            <g transform="matrix(-1,0,0,1,1210.72,59.035)">
                <rect x="604.242" y="333.776" width="2.232" height="12.693" style="fill:rgb(135,135,135);"/>
            </g>
            <g transform="matrix(1,0,0,1,612.341,403.63)">
                <path d="M0,-8.947L0,-5.239L6.212,-5.239L6.212,-3.384L0,-3.384L0,1.873L-2.16,1.873L-2.16,-10.82L7.202,-10.82L7.202,-8.947L0,-8.947Z" style="fill:rgb(135,135,135);fill-rule:nonzero;"/>
            </g>
            <g transform="matrix(-1,0,0,1,1247.33,59.035)">
                <rect x="622.547" y="333.776" width="2.232" height="12.693" style="fill:rgb(135,135,135);"/>
            </g>
            <g transform="matrix(1,0,0,1,638.03,394.683)">
                <path d="M0,8.949L0,10.821L-9.543,10.821L-9.543,-1.872L-0.379,-1.872L-0.379,0.001L-7.383,0.001L-7.383,3.763L-1.495,3.763L-1.495,5.564L-7.383,5.564L-7.383,8.949L0,8.949Z" style="fill:rgb(135,135,135);fill-rule:nonzero;"/>
            </g>
            <g transform="matrix(1,0,0,1,657.487,396.501)">
                <path d="M0,5.312L1.71,6.716C0.485,8.193 -1.405,9.129 -3.512,9.129C-7.202,9.129 -10.209,6.23 -10.209,2.665C-10.209,-0.9 -7.202,-3.817 -3.512,-3.817C-1.405,-3.817 0.485,-2.863 1.71,-1.386L0,0.018C-0.793,-1.062 -2.071,-1.783 -3.512,-1.783C-5.924,-1.783 -7.923,0.054 -7.923,2.665C-7.923,5.24 -5.924,7.094 -3.512,7.094C-2.071,7.094 -0.793,6.392 0,5.312" style="fill:rgb(135,135,135);fill-rule:nonzero;"/>
            </g>
            <g transform="matrix(1,0,0,1,672.464,399.168)">
                <path d="M0,-0.002C0,-2.45 -1.999,-4.449 -4.466,-4.449C-6.933,-4.449 -8.931,-2.45 -8.931,-0.002C-8.931,2.465 -6.933,4.445 -4.466,4.445C-1.999,4.445 0,2.465 0,-0.002M2.269,-0.002C2.269,3.563 -0.738,6.463 -4.466,6.463C-8.192,6.463 -11.199,3.563 -11.199,-0.002C-11.199,-3.566 -8.192,-6.465 -4.466,-6.465C-0.738,-6.465 2.269,-3.566 2.269,-0.002" style="fill:rgb(135,135,135);fill-rule:nonzero;"/>
            </g>
            <g transform="matrix(1,0,0,1,689.096,405.503)">
                <path d="M0,-12.693L0,0L-1.098,0L-9.002,-8.696L-9.002,0L-11.217,0L-11.217,-12.693L-10.119,-12.693L-2.215,-3.996L-2.215,-12.693L0,-12.693Z" style="fill:rgb(135,135,135);fill-rule:nonzero;"/>
            </g>
            <g transform="matrix(1,0,0,1,694.925,403.63)">
                <path d="M0,-8.947L0,-5.239L6.212,-5.239L6.212,-3.384L0,-3.384L0,1.873L-2.16,1.873L-2.16,-10.82L7.202,-10.82L7.202,-8.947L0,-8.947Z" style="fill:rgb(135,135,135);fill-rule:nonzero;"/>
            </g>
            <g transform="matrix(1,0,0,1,715.214,399.168)">
                <path d="M0,-0.002C0,-2.45 -1.999,-4.449 -4.466,-4.449C-6.933,-4.449 -8.931,-2.45 -8.931,-0.002C-8.931,2.465 -6.933,4.445 -4.466,4.445C-1.999,4.445 0,2.465 0,-0.002M2.269,-0.002C2.269,3.563 -0.738,6.463 -4.466,6.463C-8.192,6.463 -11.199,3.563 -11.199,-0.002C-11.199,-3.566 -8.192,-6.465 -4.466,-6.465C-0.738,-6.465 2.269,-3.566 2.269,-0.002" style="fill:rgb(135,135,135);fill-rule:nonzero;"/>
            </g>
            <g transform="matrix(1,0,0,1,722.842,398.104)">
                <path d="M0,2.107L2.539,2.107C4.682,2.107 5.798,1.045 5.798,-0.684C5.798,-2.106 5.06,-3.42 2.917,-3.42L0,-3.42L0,2.107ZM3.241,3.872C3.043,3.889 2.827,3.889 2.629,3.889L0,3.889L0,7.4L-2.214,7.4L-2.214,-5.293L3.26,-5.293C6.879,-5.293 8.121,-3.151 8.121,-0.829C8.121,1.369 7.167,2.791 5.438,3.439L8.499,7.4L5.834,7.4L3.241,3.872Z" style="fill:rgb(135,135,135);fill-rule:nonzero;"/>
            </g>
            <g transform="matrix(1,0,0,1,746.947,405.503)">
                <path d="M0,-12.693L0,0L-2.215,0L-2.215,-7.849L-6.446,-1.547L-10.678,-7.849L-10.678,0L-12.892,0L-12.892,-12.693L-11.794,-12.693L-6.446,-4.968L-1.099,-12.693L0,-12.693Z" style="fill:rgb(135,135,135);fill-rule:nonzero;"/>
            </g>
            <g transform="matrix(1,0,0,1,760.177,394.683)">
                <path d="M0,8.949L0,10.821L-9.543,10.821L-9.543,-1.872L-0.379,-1.872L-0.379,0.001L-7.383,0.001L-7.383,3.763L-1.495,3.763L-1.495,5.564L-7.383,5.564L-7.383,8.949L0,8.949Z" style="fill:rgb(135,135,135);fill-rule:nonzero;"/>
            </g>
            <g transform="matrix(1,0,0,1,545.91,405.503)">
                <path d="M0,-59.199L-19.134,-10.721C-22.256,-2.782 -30.67,0 -38.201,0L-41.595,0L-40.576,-6.04L-39.627,-6.04C-34.237,-6.04 -29.408,-7.593 -27.1,-12.065C-26.995,-12.267 -25.369,-15.935 -22.936,-22.422L-23.953,-22.422L-38.882,-59.199L-30.332,-59.199L-19.475,-32.193L-18.593,-32.193L-8.278,-59.199L0,-59.199Z" style="fill:rgb(135,135,135);fill-rule:nonzero;"/>
            </g>
        </g>
    </g>
    <defs>
        <linearGradient id="_Linear1" x1="0" y1="0" x2="1" y2="0" gradientUnits="userSpaceOnUse" gradientTransform="matrix(1,5.55112e-17,-5.55112e-17,1,-1.33227e-15,-5.95353e-07)"><stop offset="0" style="stop-color:rgb(91,91,89);stop-opacity:1"/><stop offset="0.5" style="stop-color:rgb(124,124,123);stop-opacity:1"/><stop offset="1" style="stop-color:rgb(81,81,79);stop-opacity:1"/></linearGradient>
        <linearGradient id="_Linear2" x1="0" y1="0" x2="1" y2="0" gradientUnits="userSpaceOnUse" gradientTransform="matrix(0.998984,0.0450572,-0.0450572,0.998984,0.00067822,-0.0300896)"><stop offset="0" style="stop-color:rgb(160,160,159);stop-opacity:1"/><stop offset="1" style="stop-color:rgb(110,110,109);stop-opacity:1"/></linearGradient>
        <linearGradient id="_Linear3" x1="0" y1="0" x2="1" y2="0" gradientUnits="userSpaceOnUse" gradientTransform="matrix(0.452376,0.891828,-0.891828,0.452376,0.178295,-0.290361)"><stop offset="0" style="stop-color:rgb(91,91,89);stop-opacity:1"/><stop offset="0.5" style="stop-color:rgb(124,124,123);stop-opacity:1"/><stop offset="1" style="stop-color:rgb(81,81,79);stop-opacity:1"/></linearGradient>
        <linearGradient id="_Linear4" x1="0" y1="0" x2="1" y2="0" gradientUnits="userSpaceOnUse" gradientTransform="matrix(1,0,0,1,4.44089e-16,4.00984e-05)"><stop offset="0" style="stop-color:rgb(91,91,89);stop-opacity:1"/><stop offset="0.5" style="stop-color:rgb(124,124,123);stop-opacity:1"/><stop offset="1" style="stop-color:rgb(81,81,79);stop-opacity:1"/></linearGradient>
    </defs>
</svg>
